<?xml version="1.0" standalone="no"?>
<!DOCTYPE svg PUBLIC "-//W3C//DTD SVG 20010904//EN"
 "http://www.w3.org/TR/2001/REC-SVG-20010904/DTD/svg10.dtd">
<svg version="1.0" xmlns="http://www.w3.org/2000/svg"
 width="500.000000pt" height="500.000000pt" viewBox="0 0 500.000000 500.000000"
 preserveAspectRatio="xMidYMid meet">

<g transform="translate(0.000000,500.000000) scale(0.100000,-0.100000)"
fill="#004aad" stroke="none">
<path d="M0 2500 l0 -2500 2500 0 2500 0 0 2500 0 2500 -2500 0 -2500 0 0
-2500z m2733 991 c99 -26 168 -63 228 -123 174 -173 118 -447 -91 -448 -73 0
-135 31 -175 88 -26 38 -30 52 -30 111 0 59 4 73 29 110 35 50 90 81 142 81
l37 0 -24 26 c-97 105 -409 139 -564 62 -53 -26 -112 -83 -137 -133 -29 -55
-35 -165 -15 -236 32 -107 149 -200 400 -315 436 -200 571 -322 613 -555 48
-265 -63 -487 -301 -605 -125 -62 -217 -78 -405 -71 -101 3 -169 12 -225 26
-221 58 -345 181 -345 341 1 145 90 231 228 217 108 -11 172 -84 172 -197 0
-107 -59 -178 -160 -190 l-45 -6 50 -32 c84 -55 205 -82 365 -82 147 0 269 41
354 120 61 56 86 111 86 187 0 75 -13 115 -59 176 -63 85 -210 176 -493 307
-176 82 -244 126 -323 212 -104 111 -145 224 -145 399 0 128 21 207 79 295 88
135 214 216 386 250 94 18 267 11 368 -15z"/>
</g>
</svg>
